<svg width="100" height="80" viewBox="0 0 100 80" fill="none" xmlns="http://www.w3.org/2000/svg">
<path d="M15.7415 0H83.9546C88.1295 0 92.1335 1.66503 95.0856 4.62879C98.0377 7.59256 99.6961 11.6123 99.6961 15.8037V63.2147C99.6961 67.4061 98.0377 71.4259 95.0856 74.3896C92.1335 77.3534 88.1295 79.0184 83.9546 79.0184H15.7415C11.5666 79.0184 7.56268 77.3534 4.61058 74.3896C1.65847 71.4259 0 67.4061 0 63.2147V15.8037C0 11.6123 1.65847 7.59256 4.61058 4.62879C7.56268 1.66503 11.5666 0 15.7415 0ZM15.7415 5.26789C13.1179 5.26789 10.8092 6.16344 9.02512 7.7438L49.8481 34.2413L90.671 7.7438C88.887 6.16344 86.5782 5.26789 83.9546 5.26789H15.7415ZM49.8481 40.6155L5.9293 12.0108C5.50952 13.1697 5.24716 14.4867 5.24716 15.8037V63.2147C5.24716 66.009 6.35281 68.6888 8.32088 70.6647C10.289 72.6405 12.9582 73.7505 15.7415 73.7505H83.9546C86.7379 73.7505 89.4072 72.6405 91.3752 70.6647C93.3433 68.6888 94.449 66.009 94.449 63.2147V15.8037C94.449 14.4867 94.1866 13.1697 93.7668 12.0108L49.8481 40.6155Z" fill="#5C6063"/>
</svg>
