<svg width="108" height="108" viewBox="0 0 108 108" fill="none" xmlns="http://www.w3.org/2000/svg">
<path fill-rule="evenodd" clip-rule="evenodd" d="M53.9098 107.82C83.6949 107.82 107.82 83.6949 107.82 53.9098C107.82 24.1246 83.6949 0 53.9098 0C24.1246 0 0 24.1246 0 53.9098C0 83.6949 24.1246 107.82 53.9098 107.82ZM4.49248 53.9098C4.49248 26.5955 26.5955 4.49248 53.9098 4.49248C81.1791 4.49248 103.327 26.5955 103.327 53.9098C103.327 75.7432 89.1757 94.2522 69.4987 100.632C67.0413 101.121 66.1428 99.5668 66.1428 98.2595L66.1652 95.5011C66.1877 92.9494 66.2236 89.1218 66.2236 84.6743C66.2236 80.0021 64.6692 77.082 62.8678 75.5096C73.9193 74.2832 85.4649 70.1186 85.4649 51.1154C85.4649 45.7245 83.5826 41.2769 80.3884 37.8626C80.8781 36.6362 82.5987 31.5731 79.8988 24.7895C79.8988 24.7895 75.7207 23.4822 66.2865 29.866C62.2578 28.7821 58.1042 28.2323 53.9322 28.2307C49.7542 28.2352 45.5762 28.7878 41.5779 29.866C32.1437 23.4867 27.9657 24.7895 27.9657 24.7895C25.2612 31.5731 26.9818 36.6497 27.4715 37.8626C24.1592 41.4761 22.3444 46.2137 22.395 51.1154C22.395 70.1186 33.9407 74.3416 44.9023 75.5096C43.5097 76.7361 42.1979 78.9463 41.789 82.1585C38.9228 83.4703 31.8157 85.5952 27.3682 78.0658C27.3682 78.0658 24.7491 73.3038 19.731 72.9893C19.731 72.9893 14.8791 72.9893 19.403 76.0172C19.403 76.0172 22.678 77.4908 24.8838 83.2052C24.8838 83.2052 27.75 92.0554 41.506 89.0904C41.506 91.7679 41.542 94.3915 41.5644 96.1885L41.5869 98.2685C41.5869 99.5758 40.6884 101.135 38.231 100.641C18.5989 94.0815 4.40263 75.6174 4.40263 53.9187L4.49248 53.9098Z" fill="#5C6063"/>
</svg>
