<svg width="108" height="108" viewBox="0 0 108 108" fill="none" xmlns="http://www.w3.org/2000/svg">
<path d="M65.7281 40.2994C63.4485 40.2994 61.7607 40.8743 60.4393 41.6006C60.2275 40.8474 59.5315 40.296 58.7111 40.4608H48.6783C47.6864 40.296 46.8829 41.0996 47.1888 42.1419V79.1263C46.8829 80.0677 47.6864 80.8746 48.6783 80.8074H58.7111C59.703 80.8746 60.5066 80.0677 60.5066 79.0758L60.5032 56.7238C60.4998 56.7137 60.4629 55.6446 61.1387 54.9082C61.68 54.3232 62.6113 54.024 63.899 54.024C66.0441 54.024 66.999 54.9015 67.3554 56.865V79.0758C67.0024 80.0677 67.8059 80.8746 68.7978 80.8074H79.372C80.3638 80.8746 81.1674 80.0677 80.811 79.0758V56.1186C81.164 44.445 72.8493 40.2994 65.7281 40.2994ZM77.5732 77.4452H70.5932V56.865C70.5932 52.8943 68.0278 50.4331 63.9024 50.4331C61.569 50.4331 59.7534 51.119 58.5027 52.4706C56.7644 54.3535 56.8989 56.7406 57.2721 57.2719V77.4452H50.4737V43.8903H56.9157V45.02C56.9131 45.3565 57.0055 45.6869 57.1822 45.9733C57.3589 46.2597 57.6129 46.4905 57.9149 46.639C58.2169 46.7875 58.5547 46.8479 58.8894 46.813C59.2241 46.7782 59.5423 46.6497 59.8072 46.4422L60.2779 46.0791C61.6396 45.0065 63.0484 43.8936 65.7314 43.8936C68.5086 43.8936 77.5765 44.7779 77.5765 56.122L77.5732 77.4452ZM37.0988 23.5354C33.3264 23.5354 30.2601 26.6017 30.2601 30.3741C30.2601 34.1466 33.3264 37.2129 37.0988 37.2129C40.8712 37.2129 43.9376 34.1466 43.9376 30.3741C43.9376 26.6017 40.8712 23.5354 37.0988 23.5354ZM37.0988 33.622C35.3101 33.622 33.8509 32.1628 33.8509 30.3741C33.8509 28.5854 35.3101 27.1262 37.0988 27.1262C38.8875 27.1262 40.3467 28.5854 40.3467 30.3741C40.3467 32.1628 38.8875 33.622 37.0988 33.622ZM41.9001 40.296H31.921C30.9292 40.296 30.1256 41.0996 30.3744 42.1419V79.1263C30.1256 80.0677 30.9292 80.8746 31.921 80.8074H41.9001C42.8919 80.8746 43.6955 80.0677 43.6955 79.0758V42.0915C43.6955 41.6153 43.5063 41.1586 43.1696 40.8219C42.8329 40.4852 42.3762 40.296 41.9001 40.296ZM40.461 77.4452H33.7164V43.8903H40.461V77.4452Z" fill="#5C6063"/>
<path d="M53.9098 0C24.1811 0 0 24.1811 0 53.9098C0 83.6385 24.1811 107.82 53.9098 107.82C83.6385 107.82 107.82 83.6385 107.82 53.9098C107.82 24.1811 83.6385 0 53.9098 0ZM53.9098 104.229C26.1648 104.229 3.59085 81.6548 3.59085 53.9098C3.59085 26.1648 26.1648 3.59085 53.9098 3.59085C81.6548 3.59085 104.229 26.1648 104.229 53.9098C104.229 81.6548 81.6548 104.229 53.9098 104.229Z" fill="#5C6063"/>
</svg>
